<?xml version="1.0" encoding="UTF-8"?>
<svg width="192px" height="108px" viewBox="0 0 192 108" version="1.1" xmlns="http://www.w3.org/2000/svg" xmlns:xlink="http://www.w3.org/1999/xlink">
    <!-- Generator: Sketch 53.2 (72643) - https://sketchapp.com -->
    <title>logo</title>
    <desc>Created with Sketch.</desc>
    <g id="Page-1" stroke="none" stroke-width="1" fill="none" fill-rule="evenodd">
        <g id="RideZum" transform="translate(-1115.000000, -3937.000000)" fill-rule="nonzero">
            <g id="Group-23" transform="translate(0.000000, 3937.000000)">
                <g id="logo" transform="translate(1115.000000, 0.000000)">
                    <path d="M135.013156,80.2367989 L151.414138,80.2367989 C151.63986,80.2352906 151.822479,80.0492073 151.823959,79.8192032 L151.823959,77.081324 C151.823959,76.8506923 151.640476,76.6637283 151.414138,76.6637283 L135.013156,76.6637283 C134.786818,76.6637283 134.603335,76.8506923 134.603335,77.081324 L134.603335,79.8219687 C134.606286,80.0508921 134.78848,80.2353124 135.013156,80.2367989 L135.013156,80.2367989 Z M127.652662,102.914182 L111.992614,102.914182 C111.888339,102.916065 111.792228,102.856897 111.745355,102.761964 C111.698483,102.667031 111.709142,102.553127 111.772777,102.468931 L127.864357,80.4220897 C127.916526,80.3499212 127.945018,80.262821 127.945779,80.1731916 L127.945779,76.4175957 C127.944299,76.1875916 127.76168,76.0015083 127.535958,76 L106.876637,76 C106.65136,76.0015202 106.469525,76.1880397 106.46953,76.4175957 L106.46953,79.9021692 C106.46953,80.132801 106.653013,80.3197649 106.879351,80.3197649 L121.858173,80.3197649 C121.962449,80.3178819 122.05856,80.3770501 122.105432,80.4719831 C122.152304,80.5669161 122.141645,80.6808199 122.078011,80.765016 L106.081421,102.527007 C106.028877,102.600027 106.000375,102.688126 106,102.778671 L106,106.866131 C106.00148,107.096135 106.184099,107.282218 106.409821,107.283727 L127.652662,107.283727 C127.761575,107.284469 127.866238,107.240711 127.943253,107.162235 C128.020268,107.083759 128.063211,106.97711 128.062483,106.866131 L128.062483,103.337309 C128.06404,103.111383 127.887879,102.925732 127.666232,102.919713 L127.652662,102.914182 Z M184.275811,83.7905108 C181.54548,83.7905108 178.771725,84.7529168 176.988597,87.734163 C176.946243,87.8052817 176.869074,87.8470617 176.78753,87.8430226 C176.705986,87.8389834 176.633158,87.7897736 176.597774,87.7148043 C175.316744,85.0432979 172.732972,83.7877452 170.065064,83.7877452 C167.622423,83.7877452 165.006082,84.8331173 163.537783,87.0400138 C163.500836,87.0936711 163.43431,87.117175 163.372695,87.0983401 C163.311081,87.0795051 163.268238,87.022568 163.266378,86.9570478 L163.266378,84.8690692 C163.264898,84.6390651 163.082279,84.4529818 162.856557,84.4514735 L159.480284,84.4514735 C159.253946,84.4514735 159.070463,84.6384375 159.070463,84.8690692 L159.070463,106.913145 C159.069733,107.012389 159.108101,107.107784 159.176972,107.177962 C159.245844,107.24814 159.339463,107.287236 159.436859,107.286492 L163.038398,107.286492 C163.135325,107.286495 163.228243,107.247072 163.296525,107.176975 C163.364807,107.106878 163.402804,107.011908 163.402081,106.913145 L163.402081,93.5251923 C163.402081,90.1069916 165.500038,87.734163 168.621192,87.734163 C171.975753,87.734163 173.373487,90.0129634 173.373487,92.9554922 L173.373487,106.877193 C173.373487,107.107825 173.55697,107.294789 173.783308,107.294789 L177.33328,107.294789 C177.559002,107.29328 177.741621,107.107197 177.743101,106.877193 L177.743101,93.4781782 C177.743101,90.2037853 179.841059,87.7369285 182.916074,87.7369285 C186.224496,87.7369285 187.668369,89.9687149 187.668369,92.9582577 L187.668369,106.877193 C187.66764,106.988172 187.710584,107.094821 187.787599,107.173297 C187.864614,107.251773 187.969277,107.295531 188.07819,107.294789 L191.590166,107.294789 C191.816504,107.294789 191.999987,107.107825 191.999987,106.877193 L191.999987,92.4853513 C192.008129,86.5035001 188.189466,83.7960418 184.275811,83.7960418 L184.275811,83.7905108 Z M152.364054,84.454239 L148.816795,84.454239 C148.707882,84.4534967 148.603219,84.4972548 148.526204,84.5757307 C148.449189,84.6542066 148.406246,84.7608556 148.406974,84.8718348 L148.406974,98.1740558 C148.406974,101.307406 146.889822,103.749373 143.209576,103.749373 C139.529329,103.749373 138.006749,101.307406 138.009463,98.1740558 L138.009463,84.8718348 C138.010191,84.7608556 137.967248,84.6542066 137.890233,84.5757307 C137.813218,84.4972548 137.708555,84.4534967 137.599642,84.454239 L134.041527,84.454239 C133.933086,84.4535024 133.828838,84.4968821 133.751903,84.5747579 C133.674967,84.6526336 133.631704,84.7585686 133.631706,84.8690692 L133.631706,98.8377841 C133.631706,104.012099 136.454314,108 143.209576,108 L143.209576,108 C149.964837,108 152.787445,104.012099 152.787445,98.8377841 L152.787445,84.8690692 C152.787534,84.7561132 152.742414,84.6480048 152.662508,84.5697139 C152.582601,84.4914231 152.474818,84.4497208 152.364054,84.454239 Z" id="Shape" fill="#000000"></path>
                    <g id="Group">
                        <path d="M42.5,29 L58.3656146,6.39845573 C62.4978055,0.569752494 70.2091776,-1.59010039 76.8256939,1.22803275 C83.4422101,4.04616589 87.1426423,11.0665803 85.6840749,18.034044 C84.2255075,25.0015077 78.0094182,29.9981926 70.8035193,29.995495 L42.5,29 Z" id="Path" fill="#009461"></path>
                        <path d="M25.8895438,6.18068829 L42.5,29 L59.1060931,6.18068829 C61.8209192,2.30411222 66.261886,-0.00364188828 71,0 L14,0 C18.7365727,-0.00221836933 23.1756005,2.30537463 25.8895438,6.18068829 Z" id="Path" fill="#DCDC22"></path>
                        <path d="M43,29 L26.3985961,6.17831719 C22.4481104,0.547449701 15.0812934,-1.53665374 8.76173415,1.18877493 C2.44217485,3.9142036 -1.09146068,10.699332 0.301873907,17.4330189 C1.6952085,24.1667058 7.63217263,28.9963486 14.5155318,28.9956439 L43,29 Z" id="Path" fill="#93C90E"></path>
                        <path d="M43,79 L26.3985961,101.821683 C22.4481104,107.45255 15.0812934,109.536654 8.76173415,106.811225 C2.44217485,104.085796 -1.09146068,97.300668 0.301873907,90.5669811 C1.6952085,83.8332942 7.63217263,79.0036514 14.5155318,79.0043561 L43,79 Z" id="Path" fill="#009461"></path>
                        <path d="M59.1060931,101.819312 L42.5,79 L25.8895438,101.819312 C23.1756005,105.694625 18.7365727,108.002218 14,108 L71,108 C66.261886,108.003642 61.8209192,105.695888 59.1060931,101.819312 L59.1060931,101.819312 Z" id="Path" fill="#DCDC22"></path>
                        <path d="M43,79 L59.5938095,101.814826 C63.5423475,107.449239 70.910992,109.537097 77.2334408,106.812902 C83.5558897,104.088706 87.0918582,97.3023058 85.698116,90.5670908 C84.3043738,83.8318759 78.3645552,79.0017472 71.4789184,79.0043548 L43,79 Z" id="Path" fill="#93C90E"></path>
                        <path d="M3,85 C5.71454478,81.2608474 10.0568164,79.0498732 14.6769648,79.0543865 L43,79.0543865 L83,24 C80.2854552,27.7391526 75.9431836,29.9501268 71.3230352,29.9456135 L43,29 L3,85 Z" id="Path" fill="#93C90E"></path>
                    </g>
                </g>
            </g>
        </g>
    </g>
</svg>