<svg xmlns="http://www.w3.org/2000/svg" width="1440" height="240" viewBox="0 0 1440 240">
    <g fill="none" fill-rule="evenodd">
        <path stroke="#FFF" d="M271.107 239.009v-62.71l2.753 1.53v-8.07l12.235 5.929v6.424l2.754 1.223v55.674"/>
        <path stroke="#FFF" d="M314.526 191.665v-23.826h-4.396v-6.94h-4.66v-5.257h-7.667v4.794h-5v7.206h-3.954v15.693M301.836 144.7v10.942"/>
        <g stroke="#FFF">
            <path d="M534.271 220.843v18.132M669.89 238.809v-67.476h12.257v-7.017h21.54v5.835h12.814v-5.835h20.984v6.229h11.884v39.66M740.063 238.809v-24.224l24.224-10.901 10.091 4.44v-4.44h7.268v8.882l7.652 3.634v22.609"/>
        </g>
        <path stroke="#FFF" d="M637.225 181.4v-25.53h4.828v-7.072h6.87v-6.432l14.3 6.432v-3.182h7.985v9.677h4.829v16.04"/>
        <g stroke="#FFF">
            <path d="M1256.124 220.308v18.667M1270.5 209.874v-42.896h13.11v-12.825h24.389v11.564h14.507v-11.564h23.757v11.984h13.456v72.795M1368.969 238.932V141.59h5.467v-10.302h7.778v-5.676h16.189v5.676h9.04v9.46h5.466v32.958"/>
            <path d="M1393.357 238.932v-57.816h-4.836v-7.36h41.207v6.519h-5.887v58.7"/>
        </g>
        <path stroke="#FFF" d="M1304.215 154.153v-44.52l5.676 3.154V96.15l25.229 12.222v13.245l5.677 3.523v29.013M1352.15 166.137V77.205h5.676v-8.2h6.937v-7.568h6.308V46.72H1385.578v14.506h5.466v7.359h5.676v8.83h6.518v53.873M0 238.975h18.5v-9.374l6.662-4.935 6.645 4.746v9.563h6.86v-17.393l17.646-8.482 7.866 3.702V213.1h3.084v5.707l6.94 3.238v16.964h17.644v-38.4h8.636v-6.63h4.85v-2.125h2.706v1.97h6.786v6.477h9.562v-6.786h7.402v-1.66H134v1.66h5.037v7.248h9.099v38.246h17.303v-16.193h-3.238v-4.472h21.744v-4.627h20.82v4.473h21.589v4.318h-3.546v16.467h83.485v-43.378h-2.545v-3.933h27.297v5.09H328.5v42.255h157.041v-14.42h-2.88v-4.034h20.163v-4.033l19.3-3.457v7.778h12.147v-5.185h-3.624v-5.76h22.756v-3.746h13.827v4.321h20.741v4.897h-4.322v23.605h35.191V188.5H614V181.4h37.375v6.356h-5.608v51.22h164.295v-23.189h-4.16v-5.762h22.757v-3.744h13.827v4.32h20.74v4.897h-4.321v23.477h35.191v-50.348h-4.272v-6.499h36.398v5.757h-5.2v51.09h67.295v-9.667l7.501-4.31 6.999 5.121v8.856h6.401v-17.062l17.012-8.48 7.155 3.447v-3.988h3.448l.087 6.246 6.775 3.238v16.6h89.074v-15.829h-3.163v-4.472h21.229v-4.626h20.325v4.472h21.078v4.318h-3.463v16.136h18.892v-14.259h-2.881v-4.574h20.164v-3.49l19.3-3.458v7.114h11.874v-3.965l24.224-10.9 10.092 4.44v-4.44h7.268v8.881l7.652 3.633v20.975h134.369"/>
        <path stroke="#FFF" d="M196.863 199.576l7.513-13.717s1.615-3.482-.085-6.565-4.437-4.51-7.774-4.248c-3.337.264-5.512 2.651-6.534 5.221-1.02 2.57.217 5.192.217 5.192l6.663 14.117z"/>
        <path fill="#FFF" d="M199.936 182.147a2.611 2.611 0 1 1-5.225 0 2.612 2.612 0 0 1 5.225 0"/>
        <path stroke="#FFF" d="M133.273 179.842l7.513-13.718s1.614-3.482-.085-6.564c-1.7-3.083-4.439-4.511-7.774-4.248-3.338.264-5.512 2.65-6.534 5.22-1.02 2.57.216 5.192.216 5.192l6.664 14.118z"/>
        <path fill="#FFF" d="M136.346 162.411a2.611 2.611 0 1 1-5.225 0 2.613 2.613 0 0 1 5.225 0"/>
        <path stroke="#FFF" d="M59.448 200.307l7.513-13.717s1.615-3.482-.085-6.565-4.437-4.51-7.774-4.248c-3.337.264-5.512 2.651-6.534 5.221-1.02 2.57.217 5.192.217 5.192l6.663 14.117z"/>
        <path fill="#FFF" d="M62.522 182.878a2.611 2.611 0 1 1-5.223 0 2.611 2.611 0 0 1 5.223 0"/>
        <path stroke="#FFF" d="M303.5 135.835l7.513-13.717s1.615-3.482-.085-6.565-4.437-4.511-7.774-4.248c-3.337.264-5.512 2.65-6.534 5.22-1.02 2.57.217 5.193.217 5.193l6.663 14.117z"/>
        <path fill="#FFF" d="M306.573 118.405a2.611 2.611 0 1 1-5.225 0 2.612 2.612 0 0 1 5.225 0"/>
        <path stroke="#FFF" d="M658.294 135.017l7.513-13.717s1.615-3.482-.085-6.565-4.437-4.51-7.774-4.248c-3.337.264-5.512 2.651-6.534 5.221-1.02 2.57.217 5.191.217 5.191l6.663 14.118z"/>
        <path fill="#FFF" d="M661.367 117.588a2.612 2.612 0 1 1-5.224 0 2.612 2.612 0 0 1 5.224 0"/>
        <path stroke="#FFF" d="M514.726 201.434l7.513-13.717s1.615-3.482-.085-6.565-4.437-4.511-7.774-4.248c-3.337.264-5.512 2.65-6.533 5.22-1.021 2.57.216 5.192.216 5.192l6.663 14.118z"/>
        <path fill="#FFF" d="M517.8 184.004a2.613 2.613 0 1 1-5.226-.001 2.613 2.613 0 0 1 5.226.001"/>
        <path stroke="#FFF" d="M1324.169 86.948l7.513-13.716s1.615-3.483-.085-6.566c-1.7-3.082-4.437-4.51-7.774-4.247-3.337.264-5.512 2.65-6.533 5.22-1.021 2.57.216 5.193.216 5.193l6.663 14.117z"/>
        <path fill="#FFF" d="M1327.243 69.519a2.612 2.612 0 1 1-5.224 0 2.612 2.612 0 0 1 5.224 0"/>
        <path stroke="#FFF" d="M1378.357 25.06l7.513-13.716s1.615-3.482-.085-6.565-4.437-4.511-7.774-4.248c-3.337.264-5.512 2.65-6.533 5.22-1.02 2.57.216 5.192.216 5.192l6.663 14.118z"/>
        <path fill="#FFF" d="M1381.432 7.631a2.613 2.613 0 1 1-5.226-.001 2.613 2.613 0 0 1 5.226.001"/>
        <path stroke="#FFF" d="M1235.852 200.562l7.513-13.717s1.615-3.482-.085-6.565-4.438-4.51-7.774-4.248c-3.337.264-5.512 2.651-6.534 5.221-1.02 2.57.217 5.192.217 5.192l6.663 14.117z"/>
        <path fill="#FFF" d="M1238.925 183.133a2.611 2.611 0 1 1-5.225 0 2.612 2.612 0 0 1 5.225 0M380.457 233.942a1.684 1.684 0 1 1 3.369 0 1.684 1.684 0 0 1-3.369 0M406.82 233.942a1.685 1.685 0 1 1 3.37 0 1.685 1.685 0 0 1-3.37 0"/>
        <path stroke="#FFF" d="M377.108 233.942a5.033 5.033 0 1 1 10.067 0 5.033 5.033 0 0 1-10.067 0zM403.472 233.942a5.033 5.033 0 1 1 10.065 0 5.033 5.033 0 0 1-10.065 0z"/>
        <path stroke="#FFF" d="M377.519 233.942h-2.688s-5.633 0 0-12.485c5.29-11.723 18.198-9.796 18.198-9.796s12.109 1.32 18.457 10.041c0 0 8.245 1.958 8.98 6.775.735 4.818-5.256 5.47-6.927 5.465M387.175 233.942h16.297M411.485 221.702H374.83M391.546 211.543v10.16M1378.667 30.975V46.72"/>
    </g>
</svg>
